<svg t="1697706647252" class="icon" viewBox="0 0 1024 1024" version="1.1" xmlns="http://www.w3.org/2000/svg" p-id="19501" width="200" height="200"><path d="M184.32 61.44h163.84a122.88 122.88 0 0 1 122.88 122.88v245.76a40.96 40.96 0 0 1-40.96 40.96H184.32a122.88 122.88 0 0 1-122.88-122.88V184.32a122.88 122.88 0 0 1 122.88-122.88zM184.32 552.96h245.76a40.96 40.96 0 0 1 40.96 40.96v245.76a122.88 122.88 0 0 1-122.88 122.88H184.32a122.88 122.88 0 0 1-122.88-122.88v-163.84a122.88 122.88 0 0 1 122.88-122.88zM593.92 552.96h245.76a122.88 122.88 0 0 1 122.88 122.88v163.84a122.88 122.88 0 0 1-122.88 122.88h-163.84a122.88 122.88 0 0 1-122.88-122.88V593.92a40.96 40.96 0 0 1 40.96-40.96z" fill="#BFC2C9" p-id="19502"></path><path d="M757.76 266.24m-204.8 0a204.8 204.8 0 1 0 409.6 0 204.8 204.8 0 1 0-409.6 0Z" fill="#BFC2C9" p-id="19503"></path></svg>
