<svg t="1697706731510" class="icon" viewBox="0 0 1024 1024" version="1.1" xmlns="http://www.w3.org/2000/svg" p-id="24491" width="200" height="200"><path d="M512 0c282.760533 0 512 229.239467 512 512 0 282.760533-229.239467 512-512 512-282.760533 0-512-229.239467-512-512C0 229.239467 229.239467 0 512 0z m0 68.266667C266.922667 68.266667 68.266667 266.922667 68.266667 512s198.656 443.733333 443.733333 443.733333 443.733333-198.656 443.733333-443.733333S757.077333 68.266667 512 68.266667z m273.066667 409.6a34.133333 34.133333 0 0 1 34.133333 34.133333 306.176 306.176 0 0 1-83.6608 210.7392 307.746133 307.746133 0 0 1-104.004267 72.362667 34.133333 34.133333 0 1 1-26.589866-62.907734 239.479467 239.479467 0 0 0 80.896-56.32A237.943467 237.943467 0 0 0 750.933333 512a34.133333 34.133333 0 0 1 34.133334-34.133333zM238.933333 477.866667a34.133333 34.133333 0 0 1 34.133334 34.133333c0 66.048 26.897067 127.726933 73.659733 172.544a239.342933 239.342933 0 0 0 69.8368 46.592 34.133333 34.133333 0 0 1-27.306667 62.5664 307.6096 307.6096 0 0 1-89.770666-59.869867A306.346667 306.346667 0 0 1 204.8 512a34.133333 34.133333 0 0 1 34.133333-34.133333z m273.066667-34.133334a68.266667 68.266667 0 1 1 0 136.533334 68.266667 68.266667 0 0 1 0-136.533334z m0-238.933333a306.653867 306.653867 0 0 1 241.902933 117.828267 34.133333 34.133333 0 0 1-53.725866 42.120533A238.421333 238.421333 0 0 0 512 273.066667a238.1824 238.1824 0 0 0-176.605867 77.994666 34.133333 34.133333 0 0 1-50.449066-45.9776A306.414933 306.414933 0 0 1 512 204.8z" fill="#82C91E" p-id="24492"></path></svg>
