<svg t="1697706503694" class="icon" viewBox="0 0 1024 1024" version="1.1" xmlns="http://www.w3.org/2000/svg" p-id="12850" width="200" height="200"><path d="M495 535h-17C266 551 89 713 47 930c-2 11 0 24 9 33s18 13 29 13h854c11 0 22-4 29-13s11-20 9-33c-27-142-110-258-234-332-47-29-143-63-248-63z" fill="#82C91E" p-id="12851"></path><path d="M939 1024H85c-25 0-48-11-64-29s-25-47-19-75c46-237 240-415 473-432h20c111 0 217 35 272 70 136 82 227 211 255 364 4 26-2 50-18 71s-38 31-65 31zM93 939z m2-10h834c-25-121-99-224-210-290-44-27-132-56-224-56h-12C294 597 137 738 95 929z" fill="#82C91E" p-id="12852"></path><path d="M512 557c-153 0-277-125-277-279S359 0 512 0s277 125 277 279-124 278-277 278z m0-509c-127 0-231 103-231 231s104 230 231 230 231-103 231-230S639 48 512 48z" fill="#82C91E" p-id="12853"></path></svg>
