<svg t="1697706480080" class="icon" viewBox="0 0 1024 1024" version="1.1" xmlns="http://www.w3.org/2000/svg" p-id="12710" width="200" height="200"><path d="M41.782659 365.873148l422.124801-348.855211c27.488591-22.690583 68.271665-22.690583 95.760256 0l422.124802 348.855211c26.489006 21.890914 41.782659 53.677722 41.782658 87.063865v524.48232c0 25.489421-21.790956 46.180833-48.579837 46.180833H48.579837c-26.88884 0-48.579837-20.691412-48.579837-46.180833V452.937013c0-33.386143 15.193694-65.172951 41.782659-87.063865z" fill="#82C91E" p-id="12711"></path><path d="M511.787588 840.776045c-161.233082 0-292.278693-125.148059-292.378651-278.984211 0-14.09415 11.495229-25.589379 25.589379-25.589379 14.09415 0 25.589379 11.495229 25.58938 25.589379 0 125.547893 108.25507 227.805452 241.199892 227.805452 133.044781 0 241.199893-102.157601 241.199893-227.805452 0-14.09415 11.495229-25.589379 25.589379-25.589379 14.194109 0 25.589379 11.495229 25.58938 25.589379 0 153.836152-131.145569 278.984211-292.378652 278.984211z" fill="#FFFFFF" p-id="12712"></path></svg>
